
        <svg xmlns="http://www.w3.org/2000/svg" xmlns:xlink="http://www.w3.org/1999/xlink" version="1.1" width="3307.6923076923076" 
        height="1592.44248972552" viewBox="0 0 3307.6923076923076 1592.44248972552">
			
			<g transform="scale(15.384615384615385) translate(10, 10)">
				<defs id="SvgjsDefs3268"></defs><g id="SvgjsG3269" featureKey="v37d4h-0" transform="matrix(0.705652909246209,0,0,0.705652909246209,12.217353864726496,16.471735453768954)" fill="#fc4c69"><path xmlns="http://www.w3.org/2000/svg" fill="#fc4c69" d="M50,5L11.029,27.499v44.999L50,95l38.971-22.501V27.5L50,5z M30.54,38.717L12.079,28.048l18.457-10.656  l18.468,10.672L30.54,38.717z M50.031,28.658l18.426,10.648L50,49.963L31.552,39.302L50.031,28.658z M12.029,29.195l18.483,10.671  l0.001,20.225l-18.484-10.68V29.195z M31.513,40.443L49.5,50.829v20.232L31.514,60.668L31.513,40.443z M49.5,72.215v21.342  L31.514,83.172l0-21.342L49.5,72.215z M50.5,72.215l17.989-10.386l-0.001,21.342L50.5,93.557V72.215z M50.5,71.061V50.829  l17.99-10.387l-0.001,20.215L50.5,71.061z M69.49,39.865l18.48-10.669v20.196L69.489,60.079L69.49,39.865z M87.971,28.604  l-0.244-0.423l-18.273,10.55L51.021,28.088l18.506-10.659l18.443,10.648V28.604z M68.483,16.826L49.993,27.494L31.518,16.825  L50,6.155L68.483,16.826z M12.029,50.582l18.484,10.671l0,21.342L12.029,71.921V50.582z M69.488,82.594l0.001-21.342l18.481-10.67  v21.34L69.488,82.594z"></path></g><g id="SvgjsG3270" featureKey="UxBHKT-0" transform="matrix(2.1824532734925888,0,0,2.1824532734925888,91.98821449298697,24.917066126226196)" fill="#65605f"><path d="M1.38 20 l0 -15.12 l2.96 0 l0 5.26 q0.46 -0.6 1.33 -0.99 t2.01 -0.39 q1.7 0 2.95 0.76 t1.91 2.07 t0.66 2.91 t-0.66 2.91 t-1.91 2.07 t-2.95 0.76 q-1.1 0 -2.03 -0.41 t-1.31 -0.93 l0 1.1 l-2.96 0 z M5.03 16.77 q0.81 0.83 2.21 0.83 q1.36 0 2.19 -0.88 t0.83 -2.22 q0 -1.38 -0.81 -2.25 t-2.21 -0.87 q-1.38 0 -2.2 0.87 t-0.82 2.25 q0 1.44 0.81 2.27 z M18.439999999999998 7.369999999999999 q-0.48 0.47 -1.16 0.47 q-0.7 0 -1.19 -0.47 t-0.49 -1.15 q0 -0.66 0.49 -1.13 t1.19 -0.47 q0.68 0 1.16 0.47 t0.48 1.13 q0 0.68 -0.48 1.15 z M15.78 9.02 l3 0 l0 10.98 l-3 0 l0 -10.98 z M26.98 11.87 q-0.86 0.21 -1.58 0.99 t-0.72 2.28 l0 4.86 l-2.98 0 l0 -11 l2.98 0 l0 1.46 q0.74 -0.98 1.81 -1.33 t1.95 -0.33 l0 2.92 q-0.6 -0.06 -1.46 0.15 z M33.019999999999996 7.369999999999999 q-0.48 0.47 -1.16 0.47 q-0.7 0 -1.19 -0.47 t-0.49 -1.15 q0 -0.66 0.49 -1.13 t1.19 -0.47 q0.68 0 1.16 0.47 t0.48 1.13 q0 0.68 -0.48 1.15 z M30.36 9.02 l3 0 l0 10.98 l-3 0 l0 -10.98 z M41.099999999999994 16.740000000000002 l-2.3 3.26 l-3.74 0 l4.14 -5.44 l-4.2 -5.52 l3.72 0 l2.38 3.38 l2.34 -3.38 l3.76 0 l-4.26 5.52 l4.16 5.44 l-3.76 0 z"></path></g>
			</g>
		</svg>
	